<svg width="152" height="32" viewBox="0 0 152 32" fill="none" xmlns="http://www.w3.org/2000/svg">
<path d="M11.5488 30.3141C5.97338 30.3141 1.41878 25.7595 1.41878 20.184C1.41878 14.6086 5.97338 10.054 11.5488 10.054C17.1636 10.054 21.6789 14.6086 21.6789 20.184C21.6789 25.7595 17.1636 30.3141 11.5488 30.3141ZM11.7452 25.6025C14.6899 25.6025 16.8495 23.3252 16.8495 20.184C16.8495 17.0429 14.6899 14.7656 11.7452 14.7656C8.76111 14.7656 6.64087 17.0429 6.64087 20.184C6.64087 23.3252 8.76111 25.6025 11.7452 25.6025Z" fill="#C69749"/>
<path d="M48.1531 10.054C52.9433 10.054 56.2022 13.9411 56.2022 19.0454V30H51.0587V19.1632C51.0587 16.5325 49.3703 14.6871 46.9752 14.6871C44.5801 14.6871 42.8525 16.5718 42.8525 19.2025V30H37.7482V19.1632C37.7482 16.5325 36.0206 14.6871 33.6255 14.6871C31.2304 14.6871 29.5028 16.5718 29.5028 19.2025V30H24.4771V10.3681H29.5028V12.3313C30.9163 10.9178 32.8403 10.054 34.8034 10.054C37.5126 10.054 39.7114 11.2712 41.1249 13.2344C42.5384 11.3104 44.9335 10.054 48.1531 10.054ZM73.2918 10.3681H78.3176V30H73.2918V28.0368C71.8783 29.4503 69.9936 30.3141 68.0304 30.3141C63.201 30.3141 59.9421 26.427 59.9421 21.3227V10.3681H65.0857V21.2049C65.0857 23.8356 66.774 25.681 69.1691 25.681C71.5642 25.681 73.2918 23.7963 73.2918 21.1656V10.3681ZM82.4909 30V0.748462H87.5166V30H82.4909ZM100.583 30.3141C95.0071 30.3141 90.4525 25.7595 90.4525 20.184C90.4525 14.6086 95.0071 10.054 100.583 10.054C106.197 10.054 110.713 14.6086 110.713 20.184C110.713 25.7595 106.197 30.3141 100.583 30.3141ZM100.779 25.6025C103.724 25.6025 105.883 23.3252 105.883 20.184C105.883 17.0429 103.724 14.7656 100.779 14.7656C97.7949 14.7656 95.6746 17.0429 95.6746 20.184C95.6746 23.3252 97.7949 25.6025 100.779 25.6025ZM128.51 0.748462H133.535V30H128.51V28.7043C126.939 29.7252 125.054 30.3141 123.052 30.3141C117.437 30.3141 112.922 25.7595 112.922 20.184C112.922 14.6086 117.437 10.054 123.052 10.054C125.054 10.054 126.939 10.6429 128.51 11.6638V0.748462ZM123.209 25.6025C126.154 25.6025 128.313 23.3252 128.313 20.184C128.313 17.0429 126.154 14.7656 123.209 14.7656C120.225 14.7656 118.105 17.0429 118.105 20.184C118.105 23.3252 120.225 25.6025 123.209 25.6025Z" fill="white"/>
<path d="M145.178 4.80371L148.574 1.40723L150.445 3.27832L147.047 6.67676H151.854V9.32227H147.048L150.446 12.7207L148.575 14.5918L145.178 11.1943V15.999H142.531V11.1914L139.131 14.5918L137.261 12.7207L140.659 9.32227H135.854V6.67676H140.66L137.261 3.27832L139.132 1.4082L142.531 4.80664V0H145.178V4.80371Z" fill="white"/>
<path d="M145.178 15.9989H142.531V11.1913L139.131 14.5917L137.261 12.7206L140.66 9.32214H135.854V6.67664H145.178V15.9989Z" fill="#C69749"/>
</svg>
